# xmcd
#
# Track frame offsets:
#  183
#  19795
#  43860
#  63295
#
# Disc length: 1083 seconds
#
# Revision: 0
# Processed by: cddbd v1.5.1PL2 Copyright (c) Steve Scherf et al.
# Submitted via: Collectorz.com_Music_Collector 6.9
#
DISCID=2d043904
DTITLE=Lisa Stansfield - What Did I Do To You
DYEAR=1990
DGENRE=
TTITLE0=What Did I Do To You
TTITLE1=My Apple Heart
TTITLE2=Lay Me Down
TTITLE3=Something's Happenin'
EXTD=
EXTT0=
EXTT1=
EXTT2=
EXTT3=
PLAYORDER=
